<svg width="59" height="21" viewBox="0 0 59 21" fill="none" xmlns="http://www.w3.org/2000/svg">
<path d="M4.00002 4.30005H0.900024V16.5H4.00002C7.40002 16.5 10.1 13.8001 10.1 10.4001C10.1 7.00005 7.40002 4.30005 4.00002 4.30005Z" fill="#FFDD00"/>
<path d="M4.00002 0.599976H0.900024V4.19998H4.00002C7.40002 4.19998 10.1 6.89997 10.1 10.3C10.1 13.7 7.40002 16.4 4.00002 16.4H0.900024V20H4.00002C9.40002 20 13.8 16.1 13.8 10.3C13.9 4.49997 9.40002 0.599976 4.00002 0.599976V0.599976ZM11.9 20.1H15.6V16.5H11.9V20.1ZM48.4 10.4L55.6 3.19998V0.599976H52.9L44.5 8.99998V0.599976H11.9V4.19998H18.8V20H22.6V4.29997H29.5C28.2 5.89997 27.5 7.99998 27.5 10.4C27.5 16.2 32 20.1 37.3 20.1H44.5V11.7L52.9 20.1H58.2L48.4 10.4ZM40.7 16.4H37.4C34.7 16.4 32.3 14.6 31.6 12.1H37V8.59997H31.6C32.4 6.09997 34.7 4.29997 37.4 4.29997H40.7V16.4Z" fill="black"/>
</svg>